# xmcd CD database file
#
# Track frame offsets:
#	150
#	18695
#	37967
#	57042
#	75325
#	90543
#	115865
#	134533
#	153766
#	171569
#
# Disc length: 2532 seconds
#
# Revision: 3
# Processed by: cddbd v1.5.1PL2 Copyright (c) Steve Scherf et al.
# Submitted via: CDex 1.51
#
DISCID=7409e20a
DTITLE=Takagi Boo - Vintage (Boo’s Hawaiian Songs)
DYEAR=1900
DGENRE=
TTITLE0=Beyond The Reef
TTITLE1=My Tane
TTITLE2=Hanalei Moon
TTITLE3=The Pidgin English Hula
TTITLE4=On A Little Bamboo Bridge
TTITLE5=Hawaiian Wedding Song
TTITLE6=Blue Hawaii
TTITLE7=E Mama E
TTITLE8=Change The World
TTITLE9=Good!(Hawaiian Version)
EXTD=
EXTT0=
EXTT1=
EXTT2=
EXTT3=
EXTT4=
EXTT5=
EXTT6=
EXTT7=
EXTT8=
EXTT9=
PLAYORDER=
